<svg id="Layer_2" data-name="Layer 2" xmlns="http://www.w3.org/2000/svg" viewBox="0 0 500.92 501.74"><defs><style>.cls-1{fill:#e1cdcb;}.cls-2{fill:#9dc69e;stroke:#4d4d4d;}.cls-2,.cls-3{stroke-miterlimit:10;}.cls-3{fill:#fff;stroke:#333;}.cls-4{font-size:19px;fill:#333;font-family:MyriadPro-Regular, Myriad Pro;}.cls-5{letter-spacing:-0.02em;}.cls-6{letter-spacing:0.02em;}</style></defs><title>lightshow2019</title><rect class="cls-1" x="0.21" y="1.74" width="500" height="500"/><path class="cls-2" d="M250,295.45,208.63,370.8A139.17,139.17,0,0,0,265,383.48l-4.22-85.21Z" transform="translate(0.5 0.5)"/><path class="cls-2" d="M229.76,286.65l-41.55,72.89a166.07,166.07,0,0,1-38.73-36.45L221.31,279Z" transform="translate(0.5 0.5)"/><path class="cls-2" d="M208.63,258.83l-71.83,43c-3.59-3.9-6.94-10.64-10.42-20.33C121.45,267.71,121,255.66,122,250h83.1Z" transform="translate(0.5 0.5)"/><path class="cls-2" d="M200.89,222.21H122c-1.17-5.64-1.32-14.14,2.81-27.38,2.85-9.11,5.92-18.6,9.17-22.62l66.9,40.14Z" transform="translate(0.5 0.5)"/><path class="cls-2" d="M324.66,231.54a55.11,55.11,0,1,1-55.1-55.1A55.14,55.14,0,0,1,324.66,231.54Z" transform="translate(0.5 0.5)"/><path class="cls-2" d="M284.72,284.54l12.9-5.57,90.59,154.51a159.81,159.81,0,0,1-50,21.83l-22.53-73.24a53.19,53.19,0,0,0,11.71-3.85,54,54,0,0,0,10.82-6.71Z" transform="translate(0.5 0.5)"/><path class="cls-2" d="M435.55,393.48a150.35,150.35,0,0,0,33.15-49.14l-129.64-74-11.25,16.3Z" transform="translate(0.5 0.5)"/><path class="cls-2" d="M194.94,500A289.53,289.53,0,0,1,83,434.55C25.22,380,6.32,316.35,0,289.61V500Z" transform="translate(0.5 0.5)"/><polyline class="cls-2" points="500.21 494.5 446.79 467.16 429.36 500.5 500.21 500.5"/><polyline class="cls-2" points="500.21 447.94 496.33 446.06 485.32 467.16 500.21 475.52"/><polyline class="cls-2" points="500.5 302.97 480.73 332.41 354.14 263.51 388.71 202.05 411.93 215.81 402.76 237.82 480.73 279.47 491.74 258.92 500.21 264.48"/><polygon class="cls-2" points="447.42 253.8 453.79 244.25 476.96 259.3 472.03 267.23 447.42 253.8"/><polyline class="cls-2" points="500.21 247.64 395.3 189.23 422.01 140.23 500.21 187.9"/><path class="cls-2" d="M96,206H22.07a125,125,0,0,1,4.17-45.07l75.35,22.54c-.65,2.67-1.3,5.35-2,8Q97.82,198.83,96,206Z" transform="translate(0.5 0.5)"/><path class="cls-2" d="M38.92,231.54c-.48,16.93-.75,92.11,56.33,156.16,67.44,75.66,160.72,75,174.31,74.65V407.42a135.83,135.83,0,0,1-87-23.94L179.06,394a166.48,166.48,0,0,1-69.72-66.19l-7.75,2.81a190.09,190.09,0,0,1-27.46-99.12Z" transform="translate(0.5 0.5)"/><path class="cls-2" d="M82.15,231.54A122,122,0,0,0,97,308.23l12.43-6.44a122.42,122.42,0,0,1-13.62-70.25Z" transform="translate(0.5 0.5)"/><path class="cls-2" d="M117.07,323.63a174.69,174.69,0,0,0,43.74,52.09l9.54-11.25a136.05,136.05,0,0,1-43.8-48Z" transform="translate(0.5 0.5)"/><path class="cls-2" d="M194,367.14l-4.41,10.95A108.63,108.63,0,0,0,250,399.4V388.15a118.67,118.67,0,0,1-56-21Z" transform="translate(0.5 0.5)"/><path class="cls-2" d="M149.48,115.16a121.5,121.5,0,0,0,65,49.78,23.26,23.26,0,0,0,10.07-.37c8.18-2.21,10.92-8.19,17.07-12.11,4.41-2.82,11.61-5.24,23.67-3,15.28-.34,26.35,2.83,33.59,5.75,16.87,6.8,24.69,17,45.69,22.57a92.08,92.08,0,0,0,14.63,2.65,50.28,50.28,0,0,0,15.1-9.81,51.06,51.06,0,0,0,13.94-23.28l-34.57-27.77L149.48,108.89Z" transform="translate(0.5 0.5)"/><path class="cls-3" d="M500,114.86s-45.72-25.54-73.89-37.15A553,553,0,0,0,302.27,42.85L101.59,32.76,29.82,0H0V86l19.72.92a530,530,0,0,0,73.4,20.18,531.66,531.66,0,0,0,115.51,10.09,450.51,450.51,0,0,1,211.06,43.79L500,205.34" transform="translate(0.5 0.5)"/><text class="cls-4" transform="translate(170.85 90.04)"><tspan class="cls-5">P</tspan><tspan x="9.8" y="0">illsbu</tspan><tspan class="cls-6" x="52.02" y="0">r</tspan><tspan x="58.71" y="0">y Dr SE</tspan></text></svg>