<?xml version="1.0" encoding="utf-8"?>
<!-- Generator: Adobe Illustrator 24.0.0, SVG Export Plug-In . SVG Version: 6.00 Build 0)  -->
<svg version="1.1" id="Layer_1" xmlns="http://www.w3.org/2000/svg" xmlns:xlink="http://www.w3.org/1999/xlink" x="0px" y="0px"
	 viewBox="0 0 512 512" style="enable-background:new 0 0 512 512;" xml:space="preserve">
<style type="text/css">
	.st0{fill:#2473B5;}
	.st1{fill:#2A3E4F;}
	.st2{fill:#32495D;}
	.st3{fill:#ECF0F1;}
	.st4{fill:#F4C342;}
</style>
<g>
	<circle class="st0" cx="256" cy="256" r="256"/>
</g>
<path class="st1" d="M239.5,225.7c-0.3,0.3-0.5,0.6-0.7,0.9c-0.3,0.2-0.6,0.4-0.9,0.7c-0.3,0.3-0.5,0.6-0.7,0.9
	c-0.3,0.2-0.6,0.4-0.9,0.7c-0.3,0.3-0.5,0.6-0.7,0.9c-0.3,0.2-0.6,0.4-0.9,0.7c-0.3,0.3-0.5,0.6-0.7,0.9c-0.3,0.2-0.6,0.4-0.9,0.7
	c-0.3,0.3-0.5,0.6-0.7,0.9c-0.3,0.2-0.6,0.4-0.9,0.7c-0.3,0.3-0.5,0.6-0.7,0.9c-0.3,0.2-0.6,0.4-0.9,0.7c-0.3,0.3-0.5,0.6-0.7,0.9
	c-0.3,0.2-0.6,0.4-0.9,0.7c-0.3,0.3-0.5,0.6-0.7,0.9c-0.3,0.2-0.6,0.4-0.9,0.7c-0.3,0.3-0.5,0.6-0.7,0.9c-0.3,0.2-0.6,0.4-0.9,0.7
	c-0.3,0.3-0.5,0.6-0.7,0.9c-0.3,0.2-0.6,0.4-0.9,0.7c-0.3,0.3-0.5,0.6-0.7,0.9c-0.3,0.2-0.6,0.4-0.9,0.7c-0.3,0.3-0.5,0.6-0.7,0.9
	c-0.3,0.2-0.6,0.4-0.9,0.7s-0.5,0.6-0.7,0.9c-0.3,0.2-0.6,0.4-0.9,0.7c-0.3,0.3-0.5,0.6-0.7,0.9c-0.3,0.2-0.6,0.4-0.9,0.7
	c-0.3,0.3-0.5,0.6-0.7,0.9c-0.3,0.2-0.6,0.4-0.9,0.7c-0.3,0.3-0.5,0.6-0.7,0.9c-0.3,0.2-0.6,0.4-0.9,0.7c-0.3,0.3-0.5,0.6-0.7,0.9
	c-0.3,0.2-0.6,0.4-0.9,0.7c-0.3,0.3-0.5,0.6-0.7,0.9c-0.3,0.2-0.6,0.4-0.9,0.7c-0.3,0.3-0.5,0.6-0.7,0.9c-0.3,0.2-0.6,0.4-0.9,0.7
	c-0.3,0.3-0.5,0.6-0.7,0.9c-0.3,0.2-0.6,0.4-0.9,0.7c-0.3,0.3-0.5,0.6-0.7,0.9c-0.3,0.2-0.6,0.4-0.9,0.7c-0.3,0.3-0.5,0.6-0.7,0.9
	c-0.3,0.2-0.6,0.4-0.9,0.7c-0.3,0.3-0.5,0.6-0.7,0.9c-0.3,0.2-0.6,0.4-0.9,0.7c-0.3,0.3-0.5,0.6-0.7,0.9c-0.3,0.2-0.6,0.4-0.9,0.7
	s-0.5,0.6-0.7,0.9c-0.3,0.2-0.6,0.4-0.9,0.7s-0.5,0.6-0.7,0.9c-0.3,0.2-0.6,0.4-0.9,0.7s-0.5,0.6-0.7,0.9c-0.3,0.2-0.6,0.4-0.9,0.7
	c-0.3,0.3-0.5,0.6-0.7,0.9c-0.3,0.2-0.6,0.4-0.9,0.7s-0.5,0.6-0.7,0.9c-0.3,0.2-0.6,0.4-0.9,0.7c-0.3,0.3-0.5,0.6-0.7,0.9
	c-0.3,0.2-0.6,0.4-0.9,0.7c-0.3,0.3-0.5,0.6-0.7,0.9c-0.3,0.2-0.6,0.4-0.9,0.7c-0.3,0.3-0.5,0.6-0.7,0.9c-0.3,0.2-0.6,0.4-0.9,0.7
	s-0.5,0.6-0.7,0.9c-0.3,0.2-0.6,0.4-0.9,0.7c-0.3,0.3-0.5,0.6-0.7,0.9c-0.3,0.2-0.6,0.4-0.9,0.7c-0.3,0.3-0.5,0.6-0.7,0.9
	c-0.3,0.2-0.6,0.4-0.9,0.7s-0.5,0.6-0.7,0.9c-0.3,0.2-0.6,0.4-0.9,0.7c-0.3,0.3-0.5,0.6-0.7,0.9c-0.3,0.2-0.6,0.4-0.9,0.7
	c-0.3,0.3-0.5,0.6-0.7,0.9c-0.3,0.2-0.6,0.4-0.9,0.7s-0.5,0.6-0.7,0.9c-0.3,0.2-0.6,0.4-0.9,0.7c-0.3,0.3-0.5,0.6-0.7,0.9
	c-0.3,0.2-0.6,0.4-0.9,0.7c-0.3,0.3-0.5,0.6-0.7,0.9c-0.3,0.2-0.6,0.4-0.9,0.7s-0.5,0.6-0.7,0.9c-0.3,0.2-0.6,0.4-0.9,0.7
	c-0.3,0.3-0.5,0.6-0.7,0.9c-0.3,0.2-0.6,0.4-0.9,0.7c-0.3,0.3-0.5,0.6-0.7,0.9c-0.3,0.2-0.6,0.4-0.9,0.7s-0.5,0.6-0.7,0.9
	c-0.3,0.2-0.6,0.4-0.9,0.7c-0.3,0.3-0.5,0.6-0.7,0.9c-0.3,0.2-0.6,0.4-0.9,0.7s-0.5,0.6-0.7,0.9c-0.3,0.2-0.6,0.4-0.9,0.7
	c-0.3,0.3-0.5,0.6-0.7,0.9c-0.3,0.2-0.6,0.4-0.9,0.7c-0.3,0.3-0.5,0.6-0.7,0.9c-0.3,0.2-0.6,0.4-0.9,0.7c-0.3,0.3-0.5,0.6-0.7,0.9
	c-0.3,0.2-0.6,0.4-0.9,0.7s-0.5,0.6-0.7,0.9c-0.3,0.2-0.6,0.4-0.9,0.7c-0.3,0.3-0.5,0.6-0.7,0.9c-0.3,0.2-0.6,0.4-0.9,0.7
	c-0.3,0.3-0.5,0.6-0.7,0.9c-0.3,0.2-0.6,0.4-0.9,0.7s-0.5,0.6-0.7,0.9c-0.3,0.2-0.6,0.4-0.9,0.7c-0.3,0.3-0.5,0.6-0.7,0.9
	c-0.3,0.2-0.6,0.4-0.9,0.7c-0.3,0.3-0.5,0.6-0.7,0.9c-0.3,0.2-0.6,0.4-0.9,0.7c-0.3,0.3-0.5,0.6-0.7,0.9c-0.3,0.2-0.6,0.4-0.9,0.7
	c-0.3,0.3-0.5,0.6-0.7,0.9c-0.3,0.2-0.6,0.4-0.9,0.7c-0.3,0.3-0.5,0.6-0.7,0.9c-0.3,0.2-0.6,0.4-0.9,0.7c-0.3,0.3-0.5,0.6-0.7,0.9
	c-0.3,0.2-0.6,0.4-0.9,0.7s-0.5,0.6-0.7,0.9c-0.3,0.2-0.6,0.4-0.9,0.7c-0.3,0.3-0.5,0.6-0.7,0.9c-0.3,0.2-0.6,0.4-0.9,0.7
	c-0.3,0.3-0.5,0.6-0.7,0.9c-0.3,0.2-0.6,0.4-0.9,0.7s-0.5,0.6-0.7,0.9c-0.3,0.2-0.6,0.4-0.9,0.7c-0.3,0.3-0.5,0.6-0.7,0.9
	c-0.3,0.2-0.6,0.4-0.9,0.7s-0.5,0.6-0.7,0.9c-0.3,0.2-0.6,0.4-0.9,0.7s-0.5,0.6-0.7,0.9c-0.3,0.2-0.6,0.4-0.9,0.7
	c-0.3,0.3-0.5,0.6-0.7,0.9c-0.3,0.2-0.6,0.4-0.9,0.7c-0.3,0.3-0.5,0.6-0.7,0.9c-0.3,0.2-0.6,0.4-0.9,0.7s-0.5,0.6-0.7,0.9
	c-0.3,0.2-0.6,0.4-0.9,0.7c-0.3,0.3-0.5,0.6-0.7,0.9c-0.3,0.2-0.6,0.4-0.9,0.7c-0.3,0.3-0.5,0.6-0.7,0.9c-0.3,0.2-0.6,0.4-0.9,0.7
	s-0.5,0.6-0.7,0.9c-0.3,0.2-0.6,0.4-0.9,0.7c-0.3,0.3-0.5,0.6-0.7,0.9c-0.3,0.2-0.6,0.4-0.9,0.7c-0.3,0.3-0.5,0.6-0.7,0.9
	c-0.3,0.2-0.6,0.4-0.9,0.7c-0.3,0.3-0.5,0.6-0.7,0.9c-0.3,0.2-0.6,0.4-0.9,0.7c-0.3,0.3-0.5,0.6-0.7,0.9c-0.3,0.2-0.6,0.4-0.9,0.7
	c-0.3,0.3-0.5,0.6-0.7,0.9c-0.3,0.2-0.6,0.4-0.9,0.7s-0.5,0.6-0.7,0.9c-0.3,0.2-0.6,0.4-0.9,0.7c-0.3,0.3-0.5,0.6-0.7,0.9
	c-0.3,0.2-0.6,0.4-0.9,0.7c-0.3,0.3-0.5,0.6-0.7,0.9c-0.3,0.2-0.6,0.4-0.9,0.7s-0.5,0.6-0.7,0.9c-0.3,0.2-0.6,0.4-0.9,0.7
	s-0.5,0.6-0.7,0.9c-0.3,0.2-0.6,0.4-0.9,0.7c-0.3,0.3-0.5,0.6-0.7,0.9c-0.3,0.2-0.6,0.4-0.9,0.7c-0.3,0.3-0.5,0.6-0.7,0.9
	c-0.3,0.2-0.6,0.4-0.9,0.7s-0.5,0.6-0.7,0.9c-0.3,0.2-0.6,0.4-0.9,0.7c-0.3,0.3-0.5,0.6-0.7,0.9c-0.3,0.2-0.6,0.4-0.9,0.7
	c-0.3,0.3-0.5,0.6-0.7,0.9c-0.3,0.2-0.6,0.4-0.9,0.7s-0.5,0.6-0.7,0.9c-0.3,0.2-0.6,0.4-0.9,0.7c-0.3,0.3-0.5,0.6-0.7,0.9
	c-0.3,0.2-0.6,0.4-0.9,0.7c-0.3,0.3-0.5,0.6-0.7,0.9c-0.3,0.2-0.6,0.4-0.9,0.7s-0.5,0.6-0.7,0.9c-0.3,0.2-0.6,0.4-0.9,0.7
	c-0.3,0.3-0.5,0.6-0.7,0.9c-0.3,0.2-0.6,0.4-0.9,0.7c-0.3,0.3-0.5,0.6-0.7,0.9c-0.3,0.2-0.6,0.4-0.9,0.7s-0.5,0.6-0.7,0.9
	c-0.3,0.2-0.6,0.4-0.9,0.7c-0.3,0.3-0.5,0.6-0.7,0.9c-0.3,0.2-0.6,0.4-0.9,0.7c-0.3,0.3-0.5,0.6-0.7,0.9c-0.3,0.2-0.6,0.4-0.9,0.7
	s-0.5,0.6-0.7,0.9c-0.3,0.2-0.6,0.4-0.9,0.7s-0.5,0.6-0.7,0.9c-0.3,0.2-0.6,0.4-0.9,0.7c-0.3,0.3-0.5,0.6-0.7,0.9
	c-0.3,0.2-0.6,0.4-0.9,0.7s-0.5,0.6-0.7,0.9c-0.3,0.2-0.6,0.4-0.9,0.7c-0.3,0.3-0.5,0.6-0.7,0.9c-0.3,0.2-0.6,0.4-0.9,0.7
	c-0.3,0.3-0.5,0.6-0.7,0.9c-0.3,0.2-0.6,0.4-0.9,0.7s-0.5,0.6-0.7,0.9c-0.3,0.2-0.6,0.4-0.9,0.7c-0.3,0.3-0.5,0.6-0.7,0.9
	c-0.3,0.2-0.6,0.4-0.9,0.7c-0.3,0.3-0.5,0.6-0.7,0.9c-0.3,0.2-0.6,0.4-0.9,0.7s-0.5,0.6-0.7,0.9c-0.3,0.2-0.6,0.4-0.9,0.7
	s-0.5,0.6-0.7,0.9c-0.3,0.2-0.6,0.4-0.9,0.7c-0.3,0.3-0.5,0.6-0.7,0.9c-0.3,0.2-0.6,0.4-0.9,0.7s-0.5,0.6-0.7,0.9
	c-0.3,0.2-0.6,0.4-0.9,0.7s-0.5,0.6-0.7,0.9c-0.3,0.2-0.6,0.4-0.9,0.7c-0.3,0.3-0.5,0.6-0.7,0.9c-0.3,0.2-0.6,0.4-0.9,0.7
	s-0.5,0.6-0.7,0.9c-0.3,0.2-0.6,0.4-0.9,0.7s-0.5,0.6-0.7,0.9c-0.3,0.2-0.6,0.4-0.9,0.7c-0.3,0.3-0.5,0.6-0.7,0.9
	c-0.3,0.2-0.6,0.4-0.9,0.7c-0.3,0.3-0.5,0.6-0.7,0.9c-0.3,0.2-0.6,0.4-0.9,0.7s-0.5,0.6-0.7,0.9c-0.3,0.2-0.6,0.4-0.9,0.7
	c-0.3,0.3-0.5,0.6-0.7,0.9c-0.3,0.2-0.6,0.4-0.9,0.7c-0.3,0.3-0.5,0.6-0.7,0.9c-0.3,0.2-0.6,0.4-0.9,0.7s-0.5,0.6-0.7,0.9
	c-0.3,0.2-0.6,0.4-0.9,0.7c-0.1,0.1-0.1,0.1-0.2,0.2c16.1,20.9,35.4,39.2,57.1,54.3c0.1-0.1,0.3-0.2,0.4-0.3
	c0.3-0.3,0.5-0.6,0.7-0.9c0.3-0.2,0.6-0.4,0.9-0.7c0.3-0.3,0.5-0.6,0.7-0.9c0.3-0.2,0.6-0.4,0.9-0.7c0.3-0.3,0.5-0.6,0.7-0.9
	c0.3-0.2,0.6-0.4,0.9-0.7s0.5-0.6,0.7-0.9c0.3-0.2,0.6-0.4,0.9-0.7c0.3-0.3,0.5-0.6,0.7-0.9c0.3-0.2,0.6-0.4,0.9-0.7
	c0.3-0.3,0.5-0.6,0.7-0.9c0.3-0.2,0.6-0.4,0.9-0.7c0.3-0.3,0.5-0.6,0.7-0.9c0.3-0.2,0.6-0.4,0.9-0.7s0.5-0.6,0.7-0.9
	c0.3-0.2,0.6-0.4,0.9-0.7c0.3-0.3,0.5-0.6,0.7-0.9c0.3-0.2,0.6-0.4,0.9-0.7c0.3-0.3,0.5-0.6,0.7-0.9c0.3-0.2,0.6-0.4,0.9-0.7
	c0.3-0.3,0.5-0.6,0.7-0.9c0.3-0.2,0.6-0.4,0.9-0.7c0.3-0.3,0.5-0.6,0.7-0.9c0.3-0.2,0.6-0.4,0.9-0.7c0.3-0.3,0.5-0.6,0.7-0.9
	c0.3-0.2,0.6-0.4,0.9-0.7s0.5-0.6,0.7-0.9c0.3-0.2,0.6-0.4,0.9-0.7c0.3-0.3,0.5-0.6,0.7-0.9c0.3-0.2,0.6-0.4,0.9-0.7
	s0.5-0.6,0.7-0.9c0.3-0.2,0.6-0.4,0.9-0.7s0.5-0.6,0.7-0.9c0.3-0.2,0.6-0.4,0.9-0.7c0.3-0.3,0.5-0.6,0.7-0.9
	c0.3-0.2,0.6-0.4,0.9-0.7c0.3-0.3,0.5-0.6,0.7-0.9c0.3-0.2,0.6-0.4,0.9-0.7s0.5-0.6,0.7-0.9c0.3-0.2,0.6-0.4,0.9-0.7
	c0.3-0.3,0.5-0.6,0.7-0.9c0.3-0.2,0.6-0.4,0.9-0.7c0.3-0.3,0.5-0.6,0.7-0.9c0.3-0.2,0.6-0.4,0.9-0.7s0.5-0.6,0.7-0.9
	c0.3-0.2,0.6-0.4,0.9-0.7c0.3-0.3,0.5-0.6,0.7-0.9c0.3-0.2,0.6-0.4,0.9-0.7s0.5-0.6,0.7-0.9c0.3-0.2,0.6-0.4,0.9-0.7
	s0.5-0.6,0.7-0.9c0.3-0.2,0.6-0.4,0.9-0.7s0.5-0.6,0.7-0.9c0.3-0.2,0.6-0.4,0.9-0.7s0.5-0.6,0.7-0.9c0.3-0.2,0.6-0.4,0.9-0.7
	c0.3-0.3,0.5-0.6,0.7-0.9c0.3-0.2,0.6-0.4,0.9-0.7c0.3-0.3,0.5-0.6,0.7-0.9c0.3-0.2,0.6-0.4,0.9-0.7c0.3-0.3,0.5-0.6,0.7-0.9
	c0.3-0.2,0.6-0.4,0.9-0.7c0.3-0.3,0.5-0.6,0.7-0.9c0.3-0.2,0.6-0.4,0.9-0.7s0.5-0.6,0.7-0.9c0.3-0.2,0.6-0.4,0.9-0.7
	c0.3-0.3,0.5-0.6,0.7-0.9c0.3-0.2,0.6-0.4,0.9-0.7c0.3-0.3,0.5-0.6,0.7-0.9c0.3-0.2,0.6-0.4,0.9-0.7c0.3-0.3,0.5-0.6,0.7-0.9
	c0.3-0.2,0.6-0.4,0.9-0.7c0.3-0.3,0.5-0.6,0.7-0.9c0.3-0.2,0.6-0.4,0.9-0.7s0.5-0.6,0.7-0.9c0.3-0.2,0.6-0.4,0.9-0.7
	s0.5-0.6,0.7-0.9c0.3-0.2,0.6-0.4,0.9-0.7c0.3-0.3,0.5-0.6,0.7-0.9c0.3-0.2,0.6-0.4,0.9-0.7c0.3-0.3,0.5-0.6,0.7-0.9
	c0.3-0.2,0.6-0.4,0.9-0.7s0.5-0.6,0.7-0.9c0.3-0.2,0.6-0.4,0.9-0.7c0.3-0.3,0.5-0.6,0.7-0.9c0.3-0.2,0.6-0.4,0.9-0.7
	c0.3-0.3,0.5-0.6,0.7-0.9c0.3-0.2,0.6-0.4,0.9-0.7c0.3-0.3,0.5-0.6,0.7-0.9c0.3-0.2,0.6-0.4,0.9-0.7c0.3-0.3,0.5-0.6,0.7-0.9
	c0.3-0.2,0.6-0.4,0.9-0.7c0.3-0.3,0.5-0.6,0.7-0.9c0.3-0.2,0.6-0.4,0.9-0.7c0.3-0.3,0.5-0.6,0.7-0.9c0.3-0.2,0.6-0.4,0.9-0.7
	c0.3-0.3,0.5-0.6,0.7-0.9c0.3-0.2,0.6-0.4,0.9-0.7c0.3-0.3,0.5-0.6,0.7-0.9c0.3-0.2,0.6-0.4,0.9-0.7c0.3-0.3,0.5-0.6,0.7-0.9
	c0.3-0.2,0.6-0.4,0.9-0.7s0.5-0.6,0.7-0.9c0.3-0.2,0.6-0.4,0.9-0.7c0.3-0.3,0.5-0.6,0.7-0.9c0.3-0.2,0.6-0.4,0.9-0.7
	c0.3-0.3,0.5-0.6,0.7-0.9c0.3-0.2,0.6-0.4,0.9-0.7c0.3-0.3,0.5-0.6,0.7-0.9c0.3-0.2,0.6-0.4,0.9-0.7c0.3-0.3,0.5-0.6,0.7-0.9
	c0.3-0.2,0.6-0.4,0.9-0.7s0.5-0.6,0.7-0.9c0.3-0.2,0.6-0.4,0.9-0.7c0.3-0.3,0.5-0.6,0.7-0.9c0.3-0.2,0.6-0.4,0.9-0.7
	c0.3-0.3,0.5-0.6,0.7-0.9c0.3-0.2,0.6-0.4,0.9-0.7c0.3-0.3,0.5-0.6,0.7-0.9c0.3-0.2,0.6-0.4,0.9-0.7c0.3-0.3,0.5-0.6,0.7-0.9
	c0.3-0.2,0.6-0.4,0.9-0.7c0.3-0.3,0.5-0.6,0.7-0.9c0.3-0.2,0.6-0.4,0.9-0.7c0.3-0.3,0.5-0.6,0.7-0.9c0.3-0.2,0.6-0.4,0.9-0.7
	s0.5-0.6,0.7-0.9c0.3-0.2,0.6-0.4,0.9-0.7c0.3-0.3,0.5-0.6,0.7-0.9c0.3-0.2,0.6-0.4,0.9-0.7c0.3-0.3,0.5-0.6,0.7-0.9
	c0.3-0.2,0.6-0.4,0.9-0.7s0.5-0.6,0.7-0.9c0.3-0.2,0.6-0.4,0.9-0.7c0.3-0.3,0.5-0.6,0.7-0.9c0.3-0.2,0.6-0.4,0.9-0.7
	c0.3-0.3,0.5-0.6,0.7-0.9c0.3-0.2,0.6-0.4,0.9-0.7s0.5-0.6,0.7-0.9c0.3-0.2,0.6-0.4,0.9-0.7c0.3-0.3,0.5-0.6,0.7-0.9
	c0.3-0.2,0.6-0.4,0.9-0.7c0.3-0.3,0.5-0.6,0.7-0.9c0.3-0.2,0.6-0.4,0.9-0.7c0.3-0.3,0.5-0.6,0.7-0.9c0.3-0.2,0.6-0.4,0.9-0.7
	c0.3-0.3,0.5-0.6,0.7-0.9c0.3-0.2,0.6-0.4,0.9-0.7c0.3-0.3,0.5-0.6,0.7-0.9c0.3-0.2,0.6-0.4,0.9-0.7c0.3-0.3,0.5-0.6,0.7-0.9
	c0.3-0.2,0.6-0.4,0.9-0.7c0.3-0.3,0.5-0.6,0.7-0.9c0.3-0.2,0.6-0.4,0.9-0.7c0.3-0.3,0.5-0.6,0.7-0.9c0.3-0.2,0.6-0.4,0.9-0.7
	c0.3-0.3,0.5-0.6,0.7-0.9c0.3-0.2,0.6-0.4,0.9-0.7c0.3-0.3,0.5-0.6,0.7-0.9c0.3-0.2,0.6-0.4,0.9-0.7s0.5-0.6,0.7-0.9
	c0.3-0.2,0.6-0.4,0.9-0.7s0.5-0.6,0.7-0.9c0.3-0.2,0.6-0.4,0.9-0.7s0.5-0.6,0.7-0.9c0.3-0.2,0.6-0.4,0.9-0.7
	c0.3-0.3,0.5-0.6,0.7-0.9c0.3-0.2,0.6-0.4,0.9-0.7c0.3-0.3,0.5-0.6,0.7-0.9c0.3-0.2,0.6-0.4,0.9-0.7c0.3-0.3,0.5-0.6,0.7-0.9
	c0.3-0.2,0.6-0.4,0.9-0.7c0.3-0.3,0.5-0.6,0.7-0.9c0.3-0.2,0.6-0.4,0.9-0.7c0.3-0.3,0.5-0.6,0.7-0.9c0.3-0.2,0.6-0.4,0.9-0.7
	c0.3-0.3,0.5-0.6,0.7-0.9c0.3-0.2,0.6-0.4,0.9-0.7c0.3-0.3,0.5-0.6,0.7-0.9c0.3-0.2,0.6-0.4,0.9-0.7c0.3-0.3,0.5-0.6,0.7-0.9
	c0.3-0.2,0.6-0.4,0.9-0.7s0.5-0.6,0.7-0.9c0.3-0.2,0.6-0.4,0.9-0.7c0.3-0.3,0.5-0.6,0.7-0.9c0.3-0.2,0.6-0.4,0.9-0.7
	c0.3-0.3,0.5-0.6,0.7-0.9c0.3-0.2,0.6-0.4,0.9-0.7s0.5-0.6,0.7-0.9c0.3-0.2,0.6-0.4,0.9-0.7c0.3-0.3,0.5-0.6,0.7-0.9
	c0.3-0.2,0.6-0.4,0.9-0.7c0.3-0.3,0.5-0.6,0.7-0.9c0.3-0.2,0.6-0.4,0.9-0.7c0.3-0.3,0.5-0.6,0.7-0.9c0.3-0.2,0.6-0.4,0.9-0.7
	c0.3-0.3,0.5-0.6,0.7-0.9c0.3-0.2,0.6-0.4,0.9-0.7c0.3-0.3,0.5-0.6,0.7-0.9c0.3-0.2,0.6-0.4,0.9-0.7c0.3-0.3,0.5-0.6,0.7-0.9
	c0.3-0.2,0.6-0.4,0.9-0.7c0.3-0.3,0.5-0.6,0.7-0.9c0.3-0.2,0.6-0.4,0.9-0.7c0.3-0.3,0.5-0.6,0.7-0.9c0.3-0.2,0.6-0.4,0.9-0.7
	c0.3-0.3,0.5-0.6,0.7-0.9c0.3-0.2,0.6-0.4,0.9-0.7c0.3-0.3,0.5-0.6,0.7-0.9c0.3-0.2,0.6-0.4,0.9-0.7c0.3-0.3,0.5-0.6,0.7-0.9
	c0.3-0.2,0.6-0.4,0.9-0.7c0.3-0.3,0.5-0.6,0.7-0.9c0.3-0.2,0.6-0.4,0.9-0.7s0.5-0.6,0.7-0.9c0.3-0.2,0.6-0.4,0.9-0.7
	c0.3-0.3,0.5-0.6,0.7-0.9c0.3-0.2,0.6-0.4,0.9-0.7c0.3-0.3,0.5-0.6,0.7-0.9c0.3-0.2,0.6-0.4,0.9-0.7s0.5-0.6,0.7-0.9
	c0.3-0.2,0.6-0.4,0.9-0.7s0.5-0.6,0.7-0.9c0.3-0.2,0.6-0.4,0.9-0.7c0.3-0.3,0.5-0.6,0.7-0.9c0.3-0.2,0.6-0.4,0.9-0.7
	c0.3-0.3,0.5-0.6,0.7-0.9c0.3-0.2,0.6-0.4,0.9-0.7s0.5-0.6,0.7-0.9c0.3-0.2,0.6-0.4,0.9-0.7c0.3-0.3,0.5-0.6,0.7-0.9
	c0.3-0.2,0.6-0.4,0.9-0.7c0.3-0.3,0.5-0.6,0.7-0.9c0.3-0.2,0.6-0.4,0.9-0.7c0.3-0.3,0.5-0.6,0.7-0.9c0.3-0.2,0.6-0.4,0.9-0.7
	c0.3-0.3,0.5-0.6,0.7-0.9c0.3-0.2,0.6-0.4,0.9-0.7c5.1-5.1-3.3-21.7-18.7-37.1C261.1,229,244.5,220.6,239.5,225.7z"/>
<ellipse transform="matrix(0.7071 -0.7071 0.7071 0.7071 -101.0115 263.2946)" class="st2" cx="267.3" cy="253.6" rx="13" ry="39.4"/>
<path class="st3" d="M243.6,332.8c0.3-0.2,0.6-0.4,0.9-0.7c0.1-0.1,0.1-0.2,0.2-0.3c-5.3,4.6-21.7-3.7-36.8-18.9
	c-15.2-15.2-23.5-31.5-18.9-36.8c-0.1,0.1-0.2,0.1-0.3,0.2c-0.3,0.3-0.5,0.6-0.7,0.9c-0.3,0.2-0.6,0.4-0.9,0.7s-0.5,0.6-0.7,0.9
	c-0.3,0.2-0.6,0.4-0.9,0.7c-0.3,0.3-0.5,0.6-0.7,0.9c-0.3,0.2-0.6,0.4-0.9,0.7c-0.3,0.3-0.5,0.6-0.7,0.9c-0.3,0.2-0.6,0.4-0.9,0.7
	s-0.5,0.6-0.7,0.9c-0.3,0.2-0.6,0.4-0.9,0.7c-0.3,0.3-0.5,0.6-0.7,0.9c-0.1,0-0.1,0.1-0.2,0.1c-3.8,5.8,4.5,21.6,19.2,36.3
	c14.7,14.7,30.5,23,36.3,19.2c0-0.1,0.1-0.1,0.1-0.1c0.3-0.2,0.6-0.4,0.9-0.7c0.3-0.3,0.5-0.6,0.7-0.9c0.3-0.2,0.6-0.4,0.9-0.7
	c0.3-0.3,0.5-0.6,0.7-0.9c0.3-0.2,0.6-0.4,0.9-0.7s0.5-0.6,0.7-0.9c0.3-0.2,0.6-0.4,0.9-0.7c0.3-0.3,0.5-0.6,0.7-0.9
	c0.3-0.2,0.6-0.4,0.9-0.7C243.2,333.4,243.4,333.1,243.6,332.8z"/>
<path class="st4" d="M357,231.1c0-50.6-24.3-74.9-74.9-74.9c50.6,0,74.9-24.3,74.9-74.9c0,50.6,24.3,74.9,74.9,74.9
	C381.4,156.2,357,180.5,357,231.1z"/>
<path class="st4" d="M167.2,250.1c0-29.7-14.3-43.9-43.9-43.9c29.7,0,43.9-14.3,43.9-43.9c0,29.7,14.3,43.9,43.9,43.9
	C181.4,206.1,167.2,220.4,167.2,250.1z"/>
<path class="st4" d="M390.8,417.5c0-29.4-14.1-43.6-43.6-43.6c29.4,0,43.6-14.1,43.6-43.6c0,29.4,14.1,43.6,43.6,43.6
	C404.9,374,390.8,388.1,390.8,417.5z"/>
<path class="st3" d="M420,273.1c0-20.2-9.7-29.9-29.9-29.9c20.2,0,29.9-9.7,29.9-29.9c0,20.2,9.7,29.9,29.9,29.9
	C429.8,243.2,420,252.9,420,273.1z"/>
<path class="st3" d="M247,174.1c0-13.5-6.5-19.9-19.9-19.9c13.5,0,19.9-6.5,19.9-19.9c0,13.5,6.5,19.9,19.9,19.9
	C253.5,154.2,247,160.7,247,174.1z"/>
</svg>
