<?xml version="1.0" encoding="utf-8"?>
<!-- Generator: Adobe Illustrator 24.0.0, SVG Export Plug-In . SVG Version: 6.00 Build 0)  -->
<svg version="1.1" id="Layer_1" xmlns="http://www.w3.org/2000/svg" xmlns:xlink="http://www.w3.org/1999/xlink" x="0px" y="0px"
	 viewBox="0 0 1000 500" style="enable-background:new 0 0 1000 500;" xml:space="preserve">
<g>
	<rect x="166.5" y="82.73" width="294" height="80.77"/>
	<path d="M460,83.23V163H167V83.23H460 M461,82.23H166V164h295V82.23L461,82.23z"/>
</g>
<g>
	<rect x="543.5" y="82.57" width="294.56" height="80.93"/>
	<path d="M837.56,83.07V163H544V83.07H837.56 M838.56,82.07H543V164h295.56V82.07L838.56,82.07z"/>
</g>
<g>
	<rect x="165.4" y="282.5" width="294.81" height="81"/>
	<path d="M459.71,283v80H165.9v-80H459.71 M460.71,282H164.9v82h295.81V282L460.71,282z"/>
</g>
<g>
	<rect x="631.5" y="319.5" width="78" height="48"/>
	<path d="M709,320v47h-77v-47H709 M710,319h-79v49h79V319L710,319z"/>
</g>
<g>
	<circle cx="793" cy="328" r="68.5"/>
	<path d="M793,260c37.5,0,68,30.5,68,68s-30.5,68-68,68s-68-30.5-68-68S755.5,260,793,260 M793,259c-38.11,0-69,30.89-69,69
		s30.89,69,69,69s69-30.89,69-69S831.11,259,793,259L793,259z"/>
</g>
<g>
	<rect x="-1.5" y="67.5" width="62" height="101"/>
	<path d="M60,68v100H-1V68H60 M61,67H-2v102h63V67L61,67z"/>
</g>
<g>
	<rect x="0.5" y="368.5" width="57" height="101"/>
	<path d="M57,369v100H1V369H57 M58,368H0v102h58V368L58,368z"/>
</g>
<g>
	<rect x="0.5" y="220.5" width="57" height="101"/>
	<path d="M57,221v100H1V221H57 M58,220H0v102h58V220L58,220z"/>
</g>
</svg>
